<?xml version="1.0" encoding="UTF-8" standalone="no" ?>
<!DOCTYPE svg PUBLIC "-//W3C//DTD SVG 1.1//EN" "http://www.w3.org/Graphics/SVG/1.1/DTD/svg11.dtd">
<svg xmlns="http://www.w3.org/2000/svg" xmlns:xlink="http://www.w3.org/1999/xlink" version="1.1" width="100" height="100" viewBox="0 0 100 100" xml:space="preserve">
<desc>Created with Fabric.js 3.6.6</desc>
<defs>
</defs>
<rect x="0" y="0" width="100%" height="100%" fill="rgba(255, 255, 255, 0)"></rect>
<g transform="matrix(0.18 0 0 0.18 50.3 50.26)"  >
<path style="stroke: none; stroke-width: 0; stroke-dasharray: none; stroke-linecap: butt; stroke-dashoffset: 0; stroke-linejoin: miter; stroke-miterlimit: 4; fill: rgb(255,255,255); fill-rule: nonzero; opacity: 1;" vector-effect="non-scaling-stroke"  transform=" translate(-245.2, -245.2)" d="M 484.1 454.796 l -110.5 -110.6 c 29.8 -36.3 47.6 -82.8 47.6 -133.4 c 0 -116.3 -94.3 -210.6 -210.6 -210.6 S 0 94.496 0 210.796 s 94.3 210.6 210.6 210.6 c 50.8 0 97.4 -18 133.8 -48 l 110.5 110.5 c 12.9 11.8 25 4.2 29.2 0 C 492.5 475.596 492.5 463.096 484.1 454.796 z M 41.1 210.796 c 0 -93.6 75.9 -169.5 169.5 -169.5 s 169.6 75.9 169.6 169.5 s -75.9 169.5 -169.5 169.5 S 41.1 304.396 41.1 210.796 z" stroke-linecap="round" />
</g>
<g transform="matrix(1 0 0 1 35.5 324)"  >
<path style="stroke: rgb(255,255,255); stroke-width: 1; stroke-dasharray: none; stroke-linecap: round; stroke-dashoffset: 0; stroke-linejoin: round; stroke-miterlimit: 10; fill: none; fill-rule: nonzero; opacity: 1;"  transform=" translate(-35.5, -324)" d="M 35.499 324 L 35.501 324" stroke-linecap="round" />
</g>
</svg>